<svg xmlns="http://www.w3.org/2000/svg" viewBox="0 0 200 200" width="200" height="200">
  <defs>
    <linearGradient id="cloudGrad" x1="0%" y1="0%" x2="100%" y2="100%">
      <stop offset="0%" style="stop-color:#7B1FA2;stop-opacity:1" />
      <stop offset="100%" style="stop-color:#87CEEB;stop-opacity:1" />
    </linearGradient>
    <linearGradient id="brainGrad" x1="0%" y1="0%" x2="100%" y2="100%">
      <stop offset="0%" style="stop-color:#87CEEB;stop-opacity:1" />
      <stop offset="100%" style="stop-color:#ffffff;stop-opacity:0.9" />
    </linearGradient>
  </defs>
  <!-- Cloud shape -->
  <path d="M60 120 Q40 120 40 100 Q40 85 55 80 Q55 55 80 50 Q95 47 105 55 Q115 45 135 50 Q155 55 155 75 Q170 78 170 95 Q170 120 150 120 Z" fill="url(#cloudGrad)" stroke="#7B1FA2" stroke-width="2"/>
  <!-- AI brain circuit inside cloud -->
  <circle cx="100" cy="85" r="12" fill="url(#brainGrad)" stroke="#7B1FA2" stroke-width="1.5"/>
  <circle cx="80" cy="95" r="6" fill="url(#brainGrad)" stroke="#7B1FA2" stroke-width="1"/>
  <circle cx="120" cy="95" r="6" fill="url(#brainGrad)" stroke="#7B1FA2" stroke-width="1"/>
  <circle cx="90" cy="108" r="4" fill="url(#brainGrad)" stroke="#7B1FA2" stroke-width="1"/>
  <circle cx="110" cy="108" r="4" fill="url(#brainGrad)" stroke="#7B1FA2" stroke-width="1"/>
  <!-- Neural connections -->
  <line x1="90" y1="88" x2="84" y2="92" stroke="#7B1FA2" stroke-width="1.5"/>
  <line x1="110" y1="88" x2="116" y2="92" stroke="#7B1FA2" stroke-width="1.5"/>
  <line x1="85" y1="100" x2="90" y2="105" stroke="#7B1FA2" stroke-width="1.5"/>
  <line x1="115" y1="100" x2="110" y2="105" stroke="#7B1FA2" stroke-width="1.5"/>
  <line x1="94" y1="108" x2="106" y2="108" stroke="#7B1FA2" stroke-width="1.5"/>
  <line x1="100" y1="97" x2="100" y2="104" stroke="#7B1FA2" stroke-width="1.5"/>
  <!-- Sparkle dots -->
  <circle cx="70" cy="70" r="2" fill="#87CEEB" opacity="0.7"/>
  <circle cx="130" cy="65" r="2.5" fill="#87CEEB" opacity="0.6"/>
  <circle cx="145" cy="85" r="1.5" fill="#87CEEB" opacity="0.5"/>
</svg>
